<svg aria-roledescription="er" role="graphics-document document" viewBox="-5.6736907958984375 0 180.02806091308594 510" style="max-width: 180.028px; background-color: white;" xmlns:xlink="http://www.w3.org/1999/xlink" xmlns="http://www.w3.org/2000/svg" width="100%" id="my-svg"><style>#my-svg{font-family:"trebuchet ms",verdana,arial,sans-serif;font-size:16px;fill:#000000;}#my-svg .error-icon{fill:#552222;}#my-svg .error-text{fill:#552222;stroke:#552222;}#my-svg .edge-thickness-normal{stroke-width:2px;}#my-svg .edge-thickness-thick{stroke-width:3.5px;}#my-svg .edge-pattern-solid{stroke-dasharray:0;}#my-svg .edge-pattern-dashed{stroke-dasharray:3;}#my-svg .edge-pattern-dotted{stroke-dasharray:2;}#my-svg .marker{fill:#000000;stroke:#000000;}#my-svg .marker.cross{stroke:#000000;}#my-svg svg{font-family:"trebuchet ms",verdana,arial,sans-serif;font-size:16px;}#my-svg .entityBox{fill:#cde498;stroke:#13540c;}#my-svg .attributeBoxOdd{fill:#ffffff;stroke:#13540c;}#my-svg .attributeBoxEven{fill:#f2f2f2;stroke:#13540c;}#my-svg .relationshipLabelBox{fill:hsl(78.1578947368, 58.4615384615%, 84.5098039216%);opacity:0.7;background-color:hsl(78.1578947368, 58.4615384615%, 84.5098039216%);}#my-svg .relationshipLabelBox rect{opacity:0.5;}#my-svg .relationshipLine{stroke:#000000;}#my-svg .entityTitleText{text-anchor:middle;font-size:18px;fill:#000000;}#my-svg #MD_PARENT_START{fill:#f5f5f5!important;stroke:#000000!important;stroke-width:1;}#my-svg #MD_PARENT_END{fill:#f5f5f5!important;stroke:#000000!important;stroke-width:1;}#my-svg :root{--mermaid-font-family:"trebuchet ms",verdana,arial,sans-serif;}</style><g/><defs><marker orient="auto" markerHeight="240" markerWidth="190" refY="7" refX="0" id="MD_PARENT_START"><path d="M 18,7 L9,13 L1,7 L9,1 Z"/></marker></defs><defs><marker orient="auto" markerHeight="28" markerWidth="20" refY="7" refX="19" id="MD_PARENT_END"><path d="M 18,7 L9,13 L1,7 L9,1 Z"/></marker></defs><defs><marker orient="auto" markerHeight="18" markerWidth="18" refY="9" refX="0" id="ONLY_ONE_START"><path d="M9,0 L9,18 M15,0 L15,18" fill="none" stroke="gray"/></marker></defs><defs><marker orient="auto" markerHeight="18" markerWidth="18" refY="9" refX="18" id="ONLY_ONE_END"><path d="M3,0 L3,18 M9,0 L9,18" fill="none" stroke="gray"/></marker></defs><defs><marker orient="auto" markerHeight="18" markerWidth="30" refY="9" refX="0" id="ZERO_OR_ONE_START"><circle r="6" cy="9" cx="21" fill="white" stroke="gray"/><path d="M9,0 L9,18" fill="none" stroke="gray"/></marker></defs><defs><marker orient="auto" markerHeight="18" markerWidth="30" refY="9" refX="30" id="ZERO_OR_ONE_END"><circle r="6" cy="9" cx="9" fill="white" stroke="gray"/><path d="M21,0 L21,18" fill="none" stroke="gray"/></marker></defs><defs><marker orient="auto" markerHeight="36" markerWidth="45" refY="18" refX="18" id="ONE_OR_MORE_START"><path d="M0,18 Q 18,0 36,18 Q 18,36 0,18 M42,9 L42,27" fill="none" stroke="gray"/></marker></defs><defs><marker orient="auto" markerHeight="36" markerWidth="45" refY="18" refX="27" id="ONE_OR_MORE_END"><path d="M3,9 L3,27 M9,18 Q27,0 45,18 Q27,36 9,18" fill="none" stroke="gray"/></marker></defs><defs><marker orient="auto" markerHeight="36" markerWidth="57" refY="18" refX="18" id="ZERO_OR_MORE_START"><circle r="6" cy="18" cx="48" fill="white" stroke="gray"/><path d="M0,18 Q18,0 36,18 Q18,36 0,18" fill="none" stroke="gray"/></marker></defs><defs><marker orient="auto" markerHeight="36" markerWidth="57" refY="18" refX="39" id="ZERO_OR_MORE_END"><circle r="6" cy="18" cx="9" fill="white" stroke="gray"/><path d="M21,18 Q39,0 57,18 Q39,36 21,18" fill="none" stroke="gray"/></marker></defs><path style="stroke: gray; fill: none;" marker-start="url(#ZERO_OR_MORE_START)" marker-end="url(#ZERO_OR_MORE_END)" d="M60.76209071897111,132L56.83127310890821,140.33333333333334C52.900455498845325,148.66666666666666,45.038820278719534,165.33333333333334,46.06832012897411,182C47.09781997922867,198.66666666666666,57.01845489986359,215.33333333333334,61.97877236018105,223.66666666666666L66.93908982049851,232" class="er relationshipLine"/><path style="stroke: gray; fill: none;" marker-start="url(#ZERO_OR_MORE_START)" marker-end="url(#ZERO_OR_MORE_END)" d="M110.86139558490954,400L115.24736049719024,391.6666666666667C119.63332540947094,383.3333333333333,128.40525523403235,366.6666666666667,127.83090268599558,350C127.25655013795883,333.3333333333333,117.33591521732392,316.6666666666667,112.37559775700645,308.3333333333333L107.41528029668899,300" class="er relationshipLine"/><path style="stroke: gray; fill: none;" marker-start="url(#ZERO_OR_ONE_START)" marker-end="url(#ONLY_ONE_END)" d="M66.93908982049851,300L61.97877236018105,308.3333333333333C57.01845489986359,316.6666666666667,47.09781997922867,333.3333333333333,46.52346743119191,350C45.949114883155154,366.6666666666667,54.72104470771655,383.3333333333333,59.10700961999726,391.6666666666667L63.492974532277955,400" class="er relationshipLine"/><path style="stroke: gray; fill: none;" marker-start="url(#ZERO_OR_ONE_START)" marker-end="url(#ONLY_ONE_END)" d="M107.41528029668899,232L112.37559775700645,223.66666666666666C117.33591521732392,215.33333333333334,127.25655013795883,198.66666666666666,128.2860499882134,182C129.31554983846797,165.33333333333334,121.45391461834218,148.66666666666666,117.5230970082793,140.33333333333334L113.59227939821639,132" class="er relationshipLine"/><g transform="translate(20,20 )" id="entity-courses-e886fca4-b6fe-54cd-8226-7a58571a113e"><rect height="112" width="134.3543701171875" y="0" x="0" class="er entityBox"/><text style="dominant-baseline: middle; text-anchor: middle; font-size: 12px;" transform="translate(67.17718505859375,12)" y="0" x="0" id="text-entity-courses-e886fca4-b6fe-54cd-8226-7a58571a113e" class="er entityLabel">courses</text><rect height="22" width="54.095550537109375" y="24" x="0" class="er attributeBoxOdd"/><text style="dominant-baseline: middle; font-size: 10.2px;" transform="translate(5,35)" y="0" x="0" id="text-entity-courses-e886fca4-b6fe-54cd-8226-7a58571a113e-attr-1-type" class="er entityLabel">String</text><rect height="22" width="56.243194580078125" y="24" x="54.095550537109375" class="er attributeBoxOdd"/><text style="dominant-baseline: middle; font-size: 10.2px;" transform="translate(59.095550537109375,35)" y="0" x="0" id="text-entity-courses-e886fca4-b6fe-54cd-8226-7a58571a113e-attr-1-name" class="er entityLabel">codigo</text><rect height="22" width="24.015625" y="24" x="110.3387451171875" class="er attributeBoxOdd"/><text style="dominant-baseline: middle; font-size: 10.2px;" transform="translate(115.3387451171875,35)" y="0" x="0" id="text-entity-courses-e886fca4-b6fe-54cd-8226-7a58571a113e-attr-1-comment" class="er entityLabel">🗝️</text><rect height="22" width="54.095550537109375" y="46" x="0" class="er attributeBoxEven"/><text style="dominant-baseline: middle; font-size: 10.2px;" transform="translate(5,57)" y="0" x="0" id="text-entity-courses-e886fca4-b6fe-54cd-8226-7a58571a113e-attr-2-type" class="er entityLabel">String</text><rect height="22" width="56.243194580078125" y="46" x="54.095550537109375" class="er attributeBoxEven"/><text style="dominant-baseline: middle; font-size: 10.2px;" transform="translate(59.095550537109375,57)" y="0" x="0" id="text-entity-courses-e886fca4-b6fe-54cd-8226-7a58571a113e-attr-2-name" class="er entityLabel">descricao</text><rect height="22" width="24.015625" y="46" x="110.3387451171875" class="er attributeBoxEven"/><text style="dominant-baseline: middle; font-size: 10.2px;" transform="translate(115.3387451171875,57)" y="0" x="0" id="text-entity-courses-e886fca4-b6fe-54cd-8226-7a58571a113e-attr-2-comment" class="er entityLabel"/><rect height="22" width="54.095550537109375" y="68" x="0" class="er attributeBoxOdd"/><text style="dominant-baseline: middle; font-size: 10.2px;" transform="translate(5,79)" y="0" x="0" id="text-entity-courses-e886fca4-b6fe-54cd-8226-7a58571a113e-attr-3-type" class="er entityLabel">String</text><rect height="22" width="56.243194580078125" y="68" x="54.095550537109375" class="er attributeBoxOdd"/><text style="dominant-baseline: middle; font-size: 10.2px;" transform="translate(59.095550537109375,79)" y="0" x="0" id="text-entity-courses-e886fca4-b6fe-54cd-8226-7a58571a113e-attr-3-name" class="er entityLabel">ementa</text><rect height="22" width="24.015625" y="68" x="110.3387451171875" class="er attributeBoxOdd"/><text style="dominant-baseline: middle; font-size: 10.2px;" transform="translate(115.3387451171875,79)" y="0" x="0" id="text-entity-courses-e886fca4-b6fe-54cd-8226-7a58571a113e-attr-3-comment" class="er entityLabel"/><rect height="22" width="54.095550537109375" y="90" x="0" class="er attributeBoxEven"/><text style="dominant-baseline: middle; font-size: 10.2px;" transform="translate(5,101)" y="0" x="0" id="text-entity-courses-e886fca4-b6fe-54cd-8226-7a58571a113e-attr-4-type" class="er entityLabel">DateTime</text><rect height="22" width="56.243194580078125" y="90" x="54.095550537109375" class="er attributeBoxEven"/><text style="dominant-baseline: middle; font-size: 10.2px;" transform="translate(59.095550537109375,101)" y="0" x="0" id="text-entity-courses-e886fca4-b6fe-54cd-8226-7a58571a113e-attr-4-name" class="er entityLabel">createdAt</text><rect height="22" width="24.015625" y="90" x="110.3387451171875" class="er attributeBoxEven"/><text style="dominant-baseline: middle; font-size: 10.2px;" transform="translate(115.3387451171875,101)" y="0" x="0" id="text-entity-courses-e886fca4-b6fe-54cd-8226-7a58571a113e-attr-4-comment" class="er entityLabel"/></g><g transform="translate(20,400 )" id="entity-students-1a328c67-5d59-56d0-bf8f-611c89a8fa4f"><rect height="90" width="134.3543701171875" y="0" x="0" class="er entityBox"/><text style="dominant-baseline: middle; text-anchor: middle; font-size: 12px;" transform="translate(67.17718505859375,12)" y="0" x="0" id="text-entity-students-1a328c67-5d59-56d0-bf8f-611c89a8fa4f" class="er entityLabel">students</text><rect height="22" width="54.095550537109375" y="24" x="0" class="er attributeBoxOdd"/><text style="dominant-baseline: middle; font-size: 10.2px;" transform="translate(5,35)" y="0" x="0" id="text-entity-students-1a328c67-5d59-56d0-bf8f-611c89a8fa4f-attr-1-type" class="er entityLabel">String</text><rect height="22" width="56.243194580078125" y="24" x="54.095550537109375" class="er attributeBoxOdd"/><text style="dominant-baseline: middle; font-size: 10.2px;" transform="translate(59.095550537109375,35)" y="0" x="0" id="text-entity-students-1a328c67-5d59-56d0-bf8f-611c89a8fa4f-attr-1-name" class="er entityLabel">codigo</text><rect height="22" width="24.015625" y="24" x="110.3387451171875" class="er attributeBoxOdd"/><text style="dominant-baseline: middle; font-size: 10.2px;" transform="translate(115.3387451171875,35)" y="0" x="0" id="text-entity-students-1a328c67-5d59-56d0-bf8f-611c89a8fa4f-attr-1-comment" class="er entityLabel">🗝️</text><rect height="22" width="54.095550537109375" y="46" x="0" class="er attributeBoxEven"/><text style="dominant-baseline: middle; font-size: 10.2px;" transform="translate(5,57)" y="0" x="0" id="text-entity-students-1a328c67-5d59-56d0-bf8f-611c89a8fa4f-attr-2-type" class="er entityLabel">String</text><rect height="22" width="56.243194580078125" y="46" x="54.095550537109375" class="er attributeBoxEven"/><text style="dominant-baseline: middle; font-size: 10.2px;" transform="translate(59.095550537109375,57)" y="0" x="0" id="text-entity-students-1a328c67-5d59-56d0-bf8f-611c89a8fa4f-attr-2-name" class="er entityLabel">nome</text><rect height="22" width="24.015625" y="46" x="110.3387451171875" class="er attributeBoxEven"/><text style="dominant-baseline: middle; font-size: 10.2px;" transform="translate(115.3387451171875,57)" y="0" x="0" id="text-entity-students-1a328c67-5d59-56d0-bf8f-611c89a8fa4f-attr-2-comment" class="er entityLabel"/><rect height="22" width="54.095550537109375" y="68" x="0" class="er attributeBoxOdd"/><text style="dominant-baseline: middle; font-size: 10.2px;" transform="translate(5,79)" y="0" x="0" id="text-entity-students-1a328c67-5d59-56d0-bf8f-611c89a8fa4f-attr-3-type" class="er entityLabel">DateTime</text><rect height="22" width="56.243194580078125" y="68" x="54.095550537109375" class="er attributeBoxOdd"/><text style="dominant-baseline: middle; font-size: 10.2px;" transform="translate(59.095550537109375,79)" y="0" x="0" id="text-entity-students-1a328c67-5d59-56d0-bf8f-611c89a8fa4f-attr-3-name" class="er entityLabel">createdAt</text><rect height="22" width="24.015625" y="68" x="110.3387451171875" class="er attributeBoxOdd"/><text style="dominant-baseline: middle; font-size: 10.2px;" transform="translate(115.3387451171875,79)" y="0" x="0" id="text-entity-students-1a328c67-5d59-56d0-bf8f-611c89a8fa4f-attr-3-comment" class="er entityLabel"/></g><g transform="translate(20,232 )" id="entity-registrations-8f364077-f80f-57ae-93ff-d8315406c164"><rect height="68" width="134.3543701171875" y="0" x="0" class="er entityBox"/><text style="dominant-baseline: middle; text-anchor: middle; font-size: 12px;" transform="translate(67.17718505859375,12)" y="0" x="0" id="text-entity-registrations-8f364077-f80f-57ae-93ff-d8315406c164" class="er entityLabel">registrations</text><rect height="22" width="54.095550537109375" y="24" x="0" class="er attributeBoxOdd"/><text style="dominant-baseline: middle; font-size: 10.2px;" transform="translate(5,35)" y="0" x="0" id="text-entity-registrations-8f364077-f80f-57ae-93ff-d8315406c164-attr-1-type" class="er entityLabel">String</text><rect height="22" width="56.243194580078125" y="24" x="54.095550537109375" class="er attributeBoxOdd"/><text style="dominant-baseline: middle; font-size: 10.2px;" transform="translate(59.095550537109375,35)" y="0" x="0" id="text-entity-registrations-8f364077-f80f-57ae-93ff-d8315406c164-attr-1-name" class="er entityLabel">id</text><rect height="22" width="24.015625" y="24" x="110.3387451171875" class="er attributeBoxOdd"/><text style="dominant-baseline: middle; font-size: 10.2px;" transform="translate(115.3387451171875,35)" y="0" x="0" id="text-entity-registrations-8f364077-f80f-57ae-93ff-d8315406c164-attr-1-comment" class="er entityLabel">🗝️</text><rect height="22" width="54.095550537109375" y="46" x="0" class="er attributeBoxEven"/><text style="dominant-baseline: middle; font-size: 10.2px;" transform="translate(5,57)" y="0" x="0" id="text-entity-registrations-8f364077-f80f-57ae-93ff-d8315406c164-attr-2-type" class="er entityLabel">DateTime</text><rect height="22" width="56.243194580078125" y="46" x="54.095550537109375" class="er attributeBoxEven"/><text style="dominant-baseline: middle; font-size: 10.2px;" transform="translate(59.095550537109375,57)" y="0" x="0" id="text-entity-registrations-8f364077-f80f-57ae-93ff-d8315406c164-attr-2-name" class="er entityLabel">createdAt</text><rect height="22" width="24.015625" y="46" x="110.3387451171875" class="er attributeBoxEven"/><text style="dominant-baseline: middle; font-size: 10.2px;" transform="translate(115.3387451171875,57)" y="0" x="0" id="text-entity-registrations-8f364077-f80f-57ae-93ff-d8315406c164-attr-2-comment" class="er entityLabel"/></g><rect height="14" width="63.62890625" y="176.00082397460938" x="14.326309204101562" class="er relationshipLabelBox"/><text style="text-anchor: middle; dominant-baseline: middle; font-size: 12px;" y="183.00082397460938" x="46.14076232910156" id="rel1" class="er relationshipLabel">cursoAlunos</text><rect height="14" width="33.458984375" y="342.41632080078125" x="111.07749938964844" class="er relationshipLabelBox"/><text style="text-anchor: middle; dominant-baseline: middle; font-size: 12px;" y="349.41632080078125" x="127.80699157714844" id="rel2" class="er relationshipLabel">cursos</text><rect height="14" width="29.95703125" y="342.41632080078125" x="31.568870544433594" class="er relationshipLabelBox"/><text style="text-anchor: middle; dominant-baseline: middle; font-size: 12px;" y="349.41632080078125" x="46.547386169433594" id="rel3" class="er relationshipLabel">aluno</text><rect height="14" width="29.01953125" y="176.00082397460938" x="113.703857421875" class="er relationshipLabelBox"/><text style="text-anchor: middle; dominant-baseline: middle; font-size: 12px;" y="183.00082397460938" x="128.213623046875" id="rel4" class="er relationshipLabel">curso</text></svg>